<?xml version="1.0" encoding="UTF-8" standalone="no"?>
<svg
   xmlns:dc="http://purl.org/dc/elements/1.1/"
   xmlns:cc="http://creativecommons.org/ns#"
   xmlns:rdf="http://www.w3.org/1999/02/22-rdf-syntax-ns#"
   xmlns:svg="http://www.w3.org/2000/svg"
   xmlns="http://www.w3.org/2000/svg"
   xmlns:sodipodi="http://sodipodi.sourceforge.net/DTD/sodipodi-0.dtd"
   xmlns:inkscape="http://www.inkscape.org/namespaces/inkscape"
   width="61.076954mm"
   height="65.47831mm"
   viewBox="0 0 216.4144 232.00976"
   version="1.1"
   id="svg6"
   sodipodi:docname="app.svg"
   inkscape:version="0.92.5 (2060ec1f9f, 2020-04-08)">
  <metadata
     id="metadata12">
    <rdf:RDF>
      <cc:Work
         rdf:about="">
        <dc:format>image/svg+xml</dc:format>
        <dc:type
           rdf:resource="http://purl.org/dc/dcmitype/StillImage" />
      </cc:Work>
    </rdf:RDF>
  </metadata>
  <defs
     id="defs10" />
  <sodipodi:namedview
     pagecolor="#ffffff"
     bordercolor="#666666"
     borderopacity="1"
     objecttolerance="10"
     gridtolerance="10"
     guidetolerance="10"
     inkscape:pageopacity="0"
     inkscape:pageshadow="2"
     inkscape:window-width="1920"
     inkscape:window-height="1051"
     id="namedview8"
     showgrid="false"
     inkscape:zoom="0.95362368"
     inkscape:cx="-260.51344"
     inkscape:cy="119.54401"
     inkscape:window-x="0"
     inkscape:window-y="-37"
     inkscape:window-maximized="1"
     inkscape:current-layer="svg6" />
  <path
     style="fill:#ffffff;fill-opacity:1;stroke-width:1.06666672"
     d="M 115.05664 0 C 83.417974 0.25866667 52.984047 3.6847447 35.248047 11.830078 C 35.248047 11.830078 0.072265625 27.564666 0.072265625 81.25 C 0.072265625 93.543333 -0.16667709 108.24208 0.22265625 123.83008 C 1.4999896 176.33141 9.8473382 228.07387 58.388672 240.92188 C 80.770005 246.84588 99.986891 248.08699 115.46289 247.23633 C 143.52822 245.68033 159.2832 237.2207 159.2832 237.2207 L 158.35742 216.85742 C 158.35742 216.85742 138.30134 223.18082 115.77734 222.41016 C 93.461344 221.64482 69.902302 220.00414 66.292969 192.60547 C 65.959635 190.1988 65.792969 187.62454 65.792969 184.92188 C 65.792969 184.92187 87.700224 190.27683 115.46289 191.54883 C 132.43889 192.32749 148.35801 190.55433 164.52734 188.625 C 195.53534 184.92233 222.5344 165.81671 225.92773 148.35938 C 231.2744 120.85937 230.83398 81.25 230.83398 81.25 C 230.83398 27.564666 195.66016 11.830078 195.66016 11.830078 C 177.92549 3.6847447 147.47265 0.25866667 115.83398 0 L 115.05664 0 z M 79.25 41.947266 C 92.428667 41.947266 102.40719 47.012531 109.00586 57.144531 L 115.42188 67.898438 L 121.83789 57.144531 C 128.43522 47.012531 138.41375 41.947266 151.59375 41.947266 C 162.98308 41.947266 172.15997 45.951052 179.16797 53.761719 C 185.9613 61.572385 189.34375 72.130682 189.34375 85.416016 L 189.34375 150.41992 L 163.58984 150.41992 L 163.58984 87.326172 C 163.58984 74.026172 157.99411 67.275391 146.80078 67.275391 C 134.42478 67.275391 128.22266 75.282521 128.22266 91.117188 L 128.22266 125.65234 L 102.62109 125.65234 L 102.62109 91.117188 C 102.62109 75.282521 96.417016 67.275391 84.041016 67.275391 C 72.847682 67.275391 67.251953 74.026172 67.251953 87.326172 L 67.251953 150.41992 L 41.498047 150.41992 L 41.498047 85.416016 C 41.498047 72.130682 44.881115 61.572385 51.675781 53.761719 C 58.682448 45.951052 67.859333 41.947266 79.25 41.947266 z "
     transform="scale(0.93749999)"
     id="path2" />
</svg>
