<svg width="512" height="512" version="1.1" xmlns="http://www.w3.org/2000/svg"><g transform="translate(0 -540.36)"><path d="m504.07 795.78a246.98 247.49 0 0 1-244.38 247.47 246.98 247.49 0 0 1-249.53-242.26 246.98 247.49 0 0 1 239.12-252.58 246.98 247.49 0 0 1 254.57 236.94" fill="#fff" stroke-opacity="0" style="paint-order:stroke fill markers"/><title>bell-ring</title><path d="m413.47 910.09v17.497h-314.95v-17.497l34.994-34.994v-104.98c0-54.241 35.519-102.01 87.485-117.4v-5.0741a34.994 34.994 0 0 1 34.994-34.994 34.994 34.994 0 0 1 34.994 34.994v5.0741c51.966 15.397 87.485 63.164 87.485 117.4v104.98l34.994 34.994m-122.48 34.994a34.994 34.994 0 0 1-34.994 34.994 34.994 34.994 0 0 1-34.994-34.994m170.6-311.62-24.846 24.846c29.92 29.57 46.717 69.813 46.717 111.81h34.994c0-51.266-20.296-100.61-56.865-136.65m-328.07 136.65h34.994c0-41.993 16.797-82.236 46.717-111.81l-24.846-24.846c-36.569 36.044-56.865 85.385-56.865 136.65z" fill="#2b90d9" stroke-width="17.497"/><title>bell</title></g></svg>
